<svg id="Layer_1" data-name="Layer 1" xmlns="http://www.w3.org/2000/svg" viewBox="0 0 175.79 41.93"><defs><style>.cls-1{fill:#fee953;}.cls-2{fill:#203c73;}.cls-3{fill:#fff;}</style></defs><path class="cls-1" d="M0,37.43a4.51,4.51,0,0,0,4.5,4.5H36.7a4.51,4.51,0,0,0,4.5-4.5V4.5A4.52,4.52,0,0,0,36.7,0H4.5A4.51,4.51,0,0,0,0,4.5V37.43"/><path class="cls-2" d="M24.58,38.31a3.25,3.25,0,0,1-1-.14c7.13-3.45,15.82-11.8,15.82-15.74a1.48,1.48,0,0,0-1-1.47,2.73,2.73,0,0,0-.8-.13,7,7,0,0,0,1.26-3.43,2,2,0,0,0-2.17-2.17,5.29,5.29,0,0,0-.54,0,6.11,6.11,0,0,0,.65-2.49c0-1.57-1-2.23-2.45-2.23a6.93,6.93,0,0,0-1.62.21,5.56,5.56,0,0,0,.57-2.21c0-1.19-.63-2.2-2.62-2.2a8,8,0,0,0-2,.28,3.48,3.48,0,0,0,.21-1.12c0-1.33-.84-2-2.24-2a8.68,8.68,0,0,0-3.05.7,2.18,2.18,0,0,0,.05-.42c0-1.05-.56-1.61-1.89-1.61-4.37,0-13.29,6.84-17.58,13a2.67,2.67,0,0,1,0-.5c0-2.38,3-7.83,10.62-11.33L14.58,3c-8,3.33-11.92,9.72-11.92,12.38A3,3,0,0,0,3.11,17a9.3,9.3,0,0,0-1.32,4v.15A2.83,2.83,0,0,0,3.3,23.68a7.64,7.64,0,0,0-.6,2.74,3.32,3.32,0,0,0,3,3.18,6.57,6.57,0,0,0-.12,1.23,3.39,3.39,0,0,0,3.39,3.49c.21,0,.42,0,.63,0v.16c0,2.24,1.54,3.29,3.57,3.29a9.19,9.19,0,0,0,1.81-.2,3.44,3.44,0,0,0,3.29,2.16,10.21,10.21,0,0,0,3.28-.66,3.29,3.29,0,0,0,2.25.66c3.49,0,10.42-4.27,13.49-9.79L37,29.64c-3.81,5.8-9.75,8.67-12.38,8.67m9.76-27.42a1.87,1.87,0,0,1,2,1.93,5.75,5.75,0,0,1-.8,2.57C33.21,16,29.58,18.1,26,21a42,42,0,0,0-9.15,9.8,20.65,20.65,0,0,1-5.35,1.71,13.75,13.75,0,0,1,2.06-4.79A48.81,48.81,0,0,0,23.86,21c3.94-3.28,7.2-6.91,8.64-9.74A6.4,6.4,0,0,1,34.34,10.89Zm.92,5A26.47,26.47,0,0,1,31,21,56,56,0,0,1,19,29.73,45.41,45.41,0,0,1,27.15,21C30.11,18.51,33.1,16.6,35.26,15.92Zm-20.35,9.8A46.74,46.74,0,0,1,19,21c4.14-4.27,9.16-8.09,12.82-9.5-1.71,2.86-5.32,6.42-9.4,9.5A51.06,51.06,0,0,1,14.91,25.72ZM30.81,6.77c1.4,0,2,.7,2,1.75a5.38,5.38,0,0,1-.75,2.41c-4.1,1.23-9.8,5.33-14.44,10a46.16,46.16,0,0,0-4.84,5.73,14.67,14.67,0,0,1-5,1.27A19.23,19.23,0,0,1,10.18,23a30.27,30.27,0,0,0,4-2.07C20.32,17.21,26.81,11,28.5,7.17A7.85,7.85,0,0,1,30.81,6.77ZM11.46,21.19l.16-.23C16,15.16,22.87,9.23,27.93,7.37,25.84,11.21,18.35,18,12,21ZM26.68,4c1.4,0,1.82.35,1.82,1.68a3,3,0,0,1-.28,1.12c-5.35,1.67-13.07,7.94-18,14.19q-.39.49-.75,1a10.46,10.46,0,0,1-3.09.55,4.75,4.75,0,0,1-1-.09c.21-.47.46-.95.74-1.45a29.82,29.82,0,0,1,2.15-3.19c6-1.91,13.85-9.22,15.16-13A8.35,8.35,0,0,1,26.68,4ZM9.59,16.19C13.43,11.63,18.78,7,23,5,21.49,8.65,14.38,14.3,9.59,16.19ZM21.89,2.61c.91,0,1.37.49,1.37,1.19a2.53,2.53,0,0,1-.09.64c-4.71,2-11,7.14-15.39,12.31a4.88,4.88,0,0,1-.89.09,3.48,3.48,0,0,1-2-.45C8.32,10.53,17.8,2.61,21.89,2.61ZM3.8,21a3.52,3.52,0,0,1-.12-1,5.64,5.64,0,0,1,.48-2.08,3.4,3.4,0,0,0,1.54.33,7.26,7.26,0,0,0,.92-.07c-.73.95-1.38,1.89-1.94,2.79l-.45.78A2,2,0,0,1,3.8,21Zm2.37,6.79a2.24,2.24,0,0,1-1.52-2.38,5.25,5.25,0,0,1,.17-1.24,5.87,5.87,0,0,0,.74.05,9.63,9.63,0,0,0,2.7-.45A21,21,0,0,0,6.17,27.75Zm3.65,4.81a2.31,2.31,0,0,1-2.37-2.5c0-.16,0-.33,0-.5a17.2,17.2,0,0,0,4.17-1.07A16.36,16.36,0,0,0,9.82,32.56Zm5,3.56-.52,0A2.5,2.5,0,0,1,11.5,34a22.36,22.36,0,0,0,4.34-1.42A10.18,10.18,0,0,0,14.82,36.12Zm6,1.67a6.75,6.75,0,0,1-1.41.17A3.12,3.12,0,0,1,17,37a28,28,0,0,0,4.05-1.81A6.16,6.16,0,0,0,20.74,37,4,4,0,0,0,20.82,37.79Zm-4.27-2s0-.09,0-.14a8.78,8.78,0,0,1,1.2-3.92A53.61,53.61,0,0,0,32,21a24.26,24.26,0,0,0,3.87-5.21,4.44,4.44,0,0,1,.84-.1,1.54,1.54,0,0,1,1.68,1.75A6.71,6.71,0,0,1,37,20.86c-.19,0-.38.06-.58.1-4.31,1-12.12,7.29-14.79,12.67A25,25,0,0,1,16.55,35.79ZM36.68,21.36C34,25,28.6,29.53,23.5,32.59,26.11,27.92,32.83,22.27,36.68,21.36ZM22.42,35.93a5.3,5.3,0,0,1,.34-1.75c5.79-3.45,11.83-8.76,14.57-12.93l.33,0A1.19,1.19,0,0,1,39,22.36c0,3.85-9.75,12.35-16.36,14.87A3.52,3.52,0,0,1,22.42,35.93Z"/><polyline class="cls-3" points="52.81 5.27 52.81 19.72 49.39 19.72 49.39 5.27 44.82 5.27 44.82 2.23 57.38 2.23 57.38 5.27 52.81 5.27"/><path class="cls-3" d="M66.27,19.72V11.91a2.08,2.08,0,1,0-4.15,0v7.81h-3.2V2.22h3.2V8.1a4.21,4.21,0,0,1,3.07-1.33c2.8,0,4.28,2,4.28,4.67v8.28h-3.2"/><path class="cls-3" d="M74.19,14.31A2.65,2.65,0,0,0,77,17.17,3.55,3.55,0,0,0,79.89,16l1.94,1.89a6.08,6.08,0,0,1-4.87,2c-3,0-5.92-1.38-5.92-6.56,0-4.18,2.26-6.54,5.58-6.54,3.56,0,5.58,2.6,5.58,6.12v1.42h-8m4.57-3.56a2.39,2.39,0,0,0-4.28,0,3.4,3.4,0,0,0-.29,1.38h4.86A3.58,3.58,0,0,0,78.76,10.75Z"/><polyline class="cls-3" points="104.03 19.72 101.18 19.72 97.97 9.1 94.74 19.72 91.89 19.72 87.22 2.23 90.79 2.23 93.49 13.26 96.69 2.23 99.24 2.23 102.44 13.26 105.17 2.23 108.73 2.23 104.03 19.72"/><path class="cls-3" d="M111.41,14.31a2.65,2.65,0,0,0,2.8,2.86,3.55,3.55,0,0,0,2.9-1.21l1.94,1.89a6.08,6.08,0,0,1-4.87,2c-3,0-5.92-1.38-5.92-6.56,0-4.18,2.26-6.54,5.58-6.54,3.56,0,5.58,2.6,5.58,6.12v1.42h-8M116,10.75a2.39,2.39,0,0,0-4.28,0,3.4,3.4,0,0,0-.29,1.38h4.86A3.58,3.58,0,0,0,116,10.75Z"/><path class="cls-3" d="M128,19.72v-1.1a3.91,3.91,0,0,1-3.14,1.22,4.38,4.38,0,0,1-3.27-1.13,4.08,4.08,0,0,1-1.06-2.87c0-2,1.4-3.71,4.38-3.71h3v-.64c0-1.4-.69-2-2.38-2a2.75,2.75,0,0,0-2.46,1.06l-2-2c1.25-1.38,2.48-1.77,4.62-1.77,3.59,0,5.45,1.52,5.45,4.52v8.43H128M128,14.31h-2.53c-1.16,0-1.8.55-1.8,1.46s.59,1.47,1.85,1.47a2.49,2.49,0,0,0,2-.62A2.07,2.07,0,0,0,128,15Z"/><path class="cls-3" d="M137.63,19.72a3.47,3.47,0,0,1-3.71-3.66V9.72h-1.36V7.29h1.36V3.5h3.19V7.29h2.26V9.72h-2.26v6.14c0,.74.34,1.16,1.11,1.16h1.15v2.7h-1.74"/><path class="cls-3" d="M148.54,19.72V11.91a2.09,2.09,0,1,0-4.16,0v7.81h-3.19V2.22h3.19V8.1a4.23,4.23,0,0,1,3.08-1.33c2.8,0,4.27,2,4.27,4.67v8.28h-3.19"/><path class="cls-3" d="M156.57,14.31a2.65,2.65,0,0,0,2.8,2.86,3.54,3.54,0,0,0,2.9-1.21l1.94,1.89a6.06,6.06,0,0,1-4.86,2c-3,0-5.92-1.38-5.92-6.56,0-4.18,2.26-6.54,5.58-6.54,3.56,0,5.57,2.6,5.57,6.12v1.42h-8m4.57-3.56a2.38,2.38,0,0,0-4.27,0,3.58,3.58,0,0,0-.3,1.38h4.87A3.58,3.58,0,0,0,161.14,10.75Z"/><path class="cls-3" d="M173.38,10.41A2.14,2.14,0,0,0,169.62,12v7.72h-3.19V6.92h3.12V8.15a4.31,4.31,0,0,1,3.22-1.38,3.88,3.88,0,0,1,3,1.2l-2.41,2.44"/><polyline class="cls-3" points="56.02 39.7 49.09 28.96 49.09 39.7 45.68 39.7 45.68 22.2 48.73 22.2 55.66 32.92 55.66 22.2 59.07 22.2 59.07 39.7 56.02 39.7"/><path class="cls-3" d="M64.18,34.3A2.65,2.65,0,0,0,67,37.15a3.56,3.56,0,0,0,2.9-1.21l1.94,1.9a6.12,6.12,0,0,1-4.87,2c-3,0-5.92-1.38-5.92-6.56,0-4.18,2.26-6.54,5.58-6.54,3.56,0,5.58,2.61,5.58,6.12V34.3h-8m4.57-3.57a2.39,2.39,0,0,0-4.27,0,3.58,3.58,0,0,0-.3,1.38h4.87A3.58,3.58,0,0,0,68.75,30.73Z"/><path class="cls-3" d="M78.29,39.7A3.47,3.47,0,0,1,74.58,36V29.7H73.23V27.27h1.35V23.48h3.19v3.79H80V29.7H77.77v6.15A1,1,0,0,0,78.88,37H80v2.7H78.29"/><polyline class="cls-3" points="95.27 39.7 92.64 39.7 89.96 31.67 87.28 39.7 84.65 39.7 80.72 26.9 84.11 26.9 86.18 34.81 88.78 26.9 91.12 26.9 93.75 34.81 95.81 26.9 99.18 26.9 95.27 39.7"/><path class="cls-3" d="M108.93,38.28a5.8,5.8,0,0,1-7.94,0c-1.15-1.21-1.45-2.66-1.45-5s.3-3.76,1.45-5a5.8,5.8,0,0,1,7.94,0c1.16,1.21,1.45,2.66,1.45,5s-.29,3.78-1.45,5m-2.48-8.09a2,2,0,0,0-1.5-.56,1.94,1.94,0,0,0-1.47.56c-.67.67-.74,1.77-.74,3.1s.07,2.46.74,3.12A2,2,0,0,0,105,37a2,2,0,0,0,1.5-.57c.66-.66.74-1.79.74-3.12S107.11,30.86,106.45,30.19Z"/><path class="cls-3" d="M119,30.39a2.14,2.14,0,0,0-3.76,1.6V39.7H112V26.9h3.12v1.23a4.31,4.31,0,0,1,3.22-1.38,3.84,3.84,0,0,1,3,1.21L119,30.39"/><polyline class="cls-3" points="129.77 39.7 126.63 34.37 125.27 35.89 125.27 39.7 122.08 39.7 122.08 23.48 125.27 23.48 125.27 32.13 129.53 26.9 133.38 26.9 128.81 32.06 133.73 39.7 129.77 39.7"/></svg>